<?xml version="1.0" encoding="UTF-8"?>
<svg id="Layer_1" data-name="Layer 1" xmlns="http://www.w3.org/2000/svg" viewBox="0 0 122 151">
  <defs>
    <style>
      .cls-1 {
        fill: #404446;
      }

      .cls-2 {
        fill: #e3e2e3;
      }

      .cls-3 {
        fill: #fff;
      }

      .cls-4 {
        fill: #333434;
      }

      .cls-5 {
        fill: #cccdcc;
      }

      .cls-6 {
        fill: #969595;
      }

      .cls-7 {
        fill: #a5a3a3;
      }

      .cls-8 {
        fill: #050509;
      }

      .cls-9 {
        fill: #d7d7d8;
      }

      .cls-10 {
        fill: #070908;
      }

      .cls-11 {
        fill: #f6f6f7;
      }

      .cls-12 {
        fill: #f0f0f1;
      }

      .cls-13 {
        fill: #fefeff;
      }

      .cls-14 {
        fill: #eaeaeb;
      }

      .cls-15 {
        fill: #f6f6f5;
      }

      .cls-16 {
        fill: #c6c5c4;
      }

      .cls-17 {
        fill: #fcfbfc;
      }

      .cls-18 {
        fill: #e7e7e5;
      }

      .cls-19 {
        fill: #efeff0;
      }

      .cls-20 {
        fill: #a4a3a3;
      }

      .cls-21 {
        fill: #1d1d1d;
      }

      .cls-22 {
        fill: #b3b2b1;
      }

      .cls-23 {
        fill: #faf9f8;
      }

      .cls-24 {
        fill: #e9e6e9;
      }

      .cls-25 {
        fill: #d6d7d6;
      }

      .cls-26 {
        fill: #eeecef;
      }

      .cls-27 {
        fill: #aeaead;
      }

      .cls-28 {
        fill: #847e7b;
      }

      .cls-29 {
        fill: #c1c3c5;
      }

      .cls-30 {
        fill: #767777;
      }

      .cls-31 {
        fill: #fefffe;
      }

      .cls-32 {
        fill: #a4a1a0;
      }

      .cls-33 {
        fill: #fefefe;
      }

      .cls-34 {
        fill: #fcfcfc;
      }
    </style>
  </defs>
  <path class="cls-13" d="m1.79.05h75.71c.53.45,1.58.18,1.7,1.22-.07.59-.38,1.02-.83,1.38-.62.26-.39.66-.17,1.06.08.32.07.63-.14.9-.45.34-1.01.23-1.5.39-.46.08-.89,0-1.27-.28-.54-.77-1.11-1.18-1.75-.09-.17.11-.36.16-.56.18-.14.01-.28,0-.42-.02-.15-.02-.29-.05-.43-.09-4.4-.12-8.81-.04-13.21-.03-2.08.24-4.17.44-6.27.41-1.55-1.07-2.92-.28-4.3.43-1.1.3-2.22.46-3.35.51-.68-.17-1.39-.71-1.97.19-2.34.91-4.84,1.18-7.23,1.89-7.85,2.34-14.92,6.05-21.07,11.52-1.56,1.39-2.96,2.91-4.34,4.47-.33.38-.59.98-1.3.65-.42-.57-.78-.81-1.25,0-.47.82-1.16,1.53-1.18,2.56,0,.25-.08.48-.34.62-1.64.88-2.61,2.29-3.24,4-.3.82-.72,1.58-.44,2.51.17.57-.15,1-.72,1.1-.69.12-.83-.4-.89-.93-.42-3.39-.36-6.78-.15-10.19.22-3.57.09-7.15.06-10.73-.03-3.49.19-6.99-.14-10.47-.05-.47.04-.92.56-1.14.12-.04.24-.09.37-.07,3.38.51,6.78.06,10.17.15,3.45.1,6.91.02,10.36.02,3.45,0,6.91.07,10.36-.03,2-.06,4.03-.29,5.97.06,2.23.41,4.37-.25,6.55-.04.21.02.42,0,.62.03.43.08,1.04,0,1.06.61.01.54-.57.49-.95.61-1.71.52-3.52.56-5.23,1.08-.26.08-.6.03-.74.4.61.2,1.22.11,1.65-.24,1.13-.95,2.41-.72,3.68-.64.41.03.86.24,1.23.06,1.97-.95,4.17-.98,6.2-1.67.2-.07.4-.23.59-.15,2.84,1.15,5.77.23,8.66.38,2.91.16,5.83-.02,8.74.06,1.61.04,3.12-.46,4.7-.53.44-.02,1.08-.1,1.03-.65-.05-.49-.68-.33-1.06-.33-5.95-.02-11.91.12-17.85-.04-17.93-.47-35.87-.09-53.8-.23-1.62-.01-1.66-.03-1.86-.87Z"/>
  <path class="cls-13" d="m120.98.05c.86-.19,1.02.14,1.02,1-.03,33.32-.02,66.63-.02,99.95-.31.08-.5-.13-.57-.36-.61-1.86-.55-3.78-.63-5.63-.91.47-1.47-.25-1.44-1.04.05-1.15-.28-2.15-.73-3.11-.98-2.08-1.57-4.32-2.65-6.36-.77-.68-.39-1.86-1.22-2.64-.4-.38.52-1.11,1.1-1.36.57-.25.85.25.88.73.05.72.25,1.3,1.01,1.58.26-.37.28-.86.28-1.34-.33-23.46-.08-46.92-.14-70.37,0-1.74-.08-3.49.03-5.24.08-1.23-.83-2.15-2.08-2.21-.46-.02-.91-.07-1.37-.1-.13,0-.25-.01-.37-.02-5.44.14-10.87.12-16.31.02-1.61-.03-3.23.14-4.88-.08-.07-.09-.14.23-.06.09.04-.06.06-.04.12.02.72.66-.02.82-.39,1.03-1.77,1.01-3.5.47-4.8-.7-1.7-1.52-3.42-2.85-5.71-3.28-.15-.93.77-.17.94-.6h3.5c.72.35,1.47.12,2.21.12,9.91,0,19.82.02,29.73-.01.84,0,1.72.53,2.54-.11Z"/>
  <path class="cls-33" d="m121.98,118.99c0,10.37,0,20.74.02,31.11,0,.75-.15.9-.9.9-8.7-.03-17.41-.02-26.11-.02-.09-.11-.15-.23-.18-.37,0-.22.06-.4.25-.54.72-.38,1.51-.38,2.3-.46,1.95-.2,3.84-.67,5.68-1.31.47-.13.94-.29,1.39-.5,1.41-.42,2.57-1.33,3.87-1.98.29-.18.58-.36.85-.58,3.14-2.13,5.34-5.08,7.16-8.35.08-.17.16-.34.24-.51,2.44-4.87,3.51-10.09,3.88-15.48.01-.13.04-.26.07-.38.2-.48.12-1.02.33-1.5.37-.52.75-.41,1.15-.03Z"/>
  <path class="cls-13" d="m79.25,150.97c-26.07,0-52.14,0-78.21,0-.5,0-1.23.26-1-.75,1.02-.46.81-1.64,1.39-2.36.43-.54.91-.73,1.46-.17.53.55,1.16.27,1.77.23,1.53.18,3.07.17,4.61.17,19.18,0,38.35,0,57.53,0,1.38,0,2.74-.1,4.11-.19.57-.04.81-.16.72-.81-.24-1.69-.2-1.69,1.44-1.12.12.04.24.03.37.02.52-.07.97.13,1.36.44,1.1.84,2.47,1.06,3.67,1.67.09.09.15.19.19.31.07.23.02.53.27.66.97.5.85,1.17.32,1.91Z"/>
  <path class="cls-31" d="m1.79.05c.2.82.88.48,1.34.48,6.28.02,12.57.02,18.85.02,9.82,0,19.65-.19,29.46.06,8.07.21,16.13.08,24.19.2.56,0,1.33-.32,1.56.58.1.4-1.06,1.2-1.67,1.28-5.16.61-10.35.3-15.52.4-.94.02-1.87.24-2.78-.22-.13-.06-.4-.06-.48.03-1.03,1.2-2.01.33-2.98-.08-.41-.17-.7-.56-1.12.06-.25.36-.8.47-1.25.43-1.27-.1-2.47.1-3.56.78-1.45.9-2.96.18-4.43.14-.4-.01-.85-.09-1,.24-.48,1.02-1.48.78-2.26,1.02-.53.16-1.12-.06-1.23-.56-.11-.51.51-.54.9-.6,1.13-.19,2.21-.53,3.39-.58,1.14-.05,2.18-.83,3.41-.91-1.23-.23-2.44-.47-3.67-.26-1.15.2-2.21.51-3.45.04-.98-.37-2.18-.08-3.29-.19-1.24-.13-2.52.14-3.78.14-8.7.02-17.4,0-26.09,0-.42,0-.86.07-1.24-.05-.63-.19-1.1-.28-1.38.52-.12.37-.7.41-.77.08-.23-1.07-1.03-.72-1.66-.8C.68,1.61.52.87,1.04.05h.75Z"/>
  <path class="cls-3" d="m1.54,147.97c.08.72-.65,1.23-.43,2.05.07.28-.69.12-1.07.19V50.53c.57-.17.91.13,1.18.58.28,2.16.79,4.28,1.36,6.38.1.44.32.83.47,1.24.13.55.5,1.06.26,1.66-1.51.41-1.46,1.55-1.55,2.83-.1,1.34.47,2.6.18,3.92-.05.33-.05.67-.05,1,0,25.99-.01,51.97,0,77.96.07.67,0,1.3-.37,1.88Z"/>
  <path class="cls-3" d="m1.04.05c-.12.77.19,1.5.25,2.25-.66.75.06,1.5.03,2.26-.08,1.83-.03,3.66-.03,5.49,0,4.28.09,8.57-.03,12.84-.08,2.73-.15,5.45-.25,8.18-.05,1.29.69,2.47.32,3.78-.09.33.15.67.62.47.36-.16.74-.38.4-.83-.57-.76-.19-1.4.14-2.08.27-.55.64-1.08.57-1.75-.03-.33.11-.58.42-.69.77-.29,1.12-.94,1.44-1.64.1-.22.31-.61.39-.6,1.29.31.84-.71,1.11-1.29.46-1,1.1-1.92,1.73-2.84.28-.41.66-.32.85.14.14.34.21.71.32,1.06.05.89-.65,1.4-1.09,2.02-3.36,4.78-5.82,9.93-6.73,15.75-.11.7-.07,1.41-.24,2.1-.33,1.23.16,2.54-.33,3.75-.31.29-.5.08-.69-.15-.19-.74.13-1.53-.18-2.26C.05,31.03.05,16.04.02,1.05.02.19.2-.13,1.04.05Z"/>
  <path class="cls-13" d="m115.98,84.26c.08.01.21,0,.24.05.55.96,1.09,1.94,1.33,3.03.05.25-.16.62.05.83,1.08,1.06,1.17,2.6,1.87,3.83.28.5.35,1.01.12,1.54-.26.6.19.95.5,1.29.43.47.54-.23.79-.31.44,1.77.25,3.61.59,5.39.08.42.16.81.51,1.09v.25c-.3,1-.34,2,0,3v.25c-.43.87-.22,1.8-.25,2.7-.05,1.58.01,3.15,0,4.73,0,.3.06.58.25.82v.75c-.2.5-.2,1,0,1.5v1c-.24.58-.53.78-.94.13-.19-.46-.1-.95-.22-1.42-.39-2.8-.51-5.62-.93-8.42-.24-1.65-.62-3.27-.86-4.91-.09-.35.64-.73-.05-1.05-.53-.73-.59-1.57-.64-2.42.03-.17.1-.31.23-.43.37-.33.77-.65.55-1.25-.2-.57-.69-.49-1.13-.53-.12-.01-.24-.07-.34-.14-.21-.23-.32-.5-.26-.82.05-.11.13-.21.19-.31.92-1.48.8-1.78-.84-2.07-.09-.08-.15-.17-.19-.29-.04-.21-.05-.42.07-.59.66-.9.28-1.18-.67-1.15-.22-.14-.34-.32-.32-.59.56-.82.62-1.59-.26-2.25-.32-.24-.45-.6-.44-.98.02-.76-.45-.74-.98-.68-.89-.79-1.26-1.85-1.59-2.93.12-.35.31-.7.05-1.07-.36-.72-.25-1.55-.52-2.3-.2-.56.2-.76.72-.53.59.26,1.04.65,1.16,1.35.14.79.44,1.52,1.22,1.93.35.19.42.5.37.85-.08.53.18.87.6,1.12Z"/>
  <path class="cls-13" d="m79.25,150.97c-.13-.58.66-1.53-.76-1.61-.45-.03-.08-.6.01-.91.51-.36,1.02-.08,1.53,0,.87.21,1.75.4,2.64.5.32.05.62.18.95.18.33.01.67.03,1,.08,1.14.16,2.27.33,3.42.42.45.04.91.07,1.23.45.24.4.08.67-.27.89h-9.74Z"/>
  <path class="cls-13" d="m120.98.05c-.31.63-.74.86-1.39.44-.41-.27-.88-.19-1.34-.19-9.76,0-19.52,0-29.28-.02-.82,0-1.72.53-2.47-.23h34.48Z"/>
  <path class="cls-13" d="m121.98,112.74c-.28-.14-.48-.34-.48-.66,0-2.25-.01-4.5.02-6.75,0-.32.18-.63.47-.84v8.25Z"/>
  <path class="cls-17" d="m121.25,116.24c.37.3.5-.12.72-.25v3c-.32.01-.64-.26-.96,0-.32-.24-.3-.57-.27-.91.17-.5.11-1.03.26-1.54.05-.13.13-.23.24-.3Z"/>
  <path class="cls-23" d="m.29,48.27c.17.08.33.17.5.25.55.56.24,1.31.43,1.95,0,.21-.04.41-.22.55-.32-.17-.64-.33-.96-.5,0-.75,0-1.5,0-2.25.08-.12.16-.12.24,0Z"/>
  <path class="cls-31" d="m79.01,1.33c-.14-.85-1.29-.52-1.51-1.28h1.5c.47.18.88.41.67,1.03-.14.28-.34.42-.66.25Z"/>
  <path class="cls-2" d="m91.99,150.97h-1c-.09-.62.41-.74.8-.95.26-.09.52-.12.79-.13.47,0,.95-.05,1.38.21.16.15.19.33.14.53-.16.25-.43.18-.66.2-.48.09-1-.3-1.44.13Z"/>
  <path class="cls-13" d="m121.98,104.25c-.74-1-.59-2,0-3v3Z"/>
  <path class="cls-15" d="m83,.05c-.21.41-.79.09-1,.5-.1.32-.25.62-.52.84-.25.08-.45.03-.59-.19-.14-.4-.09-.78.11-1.15h2Z"/>
  <path class="cls-34" d="m81,.05c.25.34,0,.68,0,1.02-.32.28-.66.25-1,.06-.33-.46-.18-.81.26-1.08h.75Z"/>
  <path class="cls-14" d="m91.74,150.25c-.21.28-.64.33-.75.72h-1c-.16-.36.01-.63.26-.87.12-.07.24-.12.37-.15.41-.04.81-.08,1.11.29Z"/>
  <path class="cls-11" d="m90.24,150.26c-.08.24-.17.47-.25.71h-1c.08-.24.17-.47.25-.71.17-.26.42-.28.7-.23.13.04.23.12.3.23Z"/>
  <path class="cls-19" d="m80.25.05c-.16.3-.29.6-.25.95-.14.17-.3.19-.49.08.09-.47-.23-.74-.51-1.03h1.25Z"/>
  <path class="cls-25" d="m.29,48.27h-.12s-.12,0-.12,0v-2.25c.51.7.14,1.5.24,2.25Z"/>
  <path class="cls-29" d="m93.25,150.73c.25,0,.5-.01.75-.02.34-.25.66-.26.98.04,0,.07.01.15.02.22h-1.75c-.08-.06-.11-.11-.08-.17.03-.05.06-.08.09-.08Z"/>
  <path class="cls-9" d="m93.25,150.73c0,.08,0,.16,0,.25h-1.25c.29-.74.82-.27,1.26-.25Z"/>
  <path class="cls-26" d="m121.98,114.99c-.37-.5-.38-1,0-1.5v1.5Z"/>
  <path d="m90.24,150.26c-.08-.03-.17-.05-.25-.08-.41-1.37-1.62-1.19-2.66-1.52-1.24-.4-2.11-.32-2.83.77-.33,0-.67,0-1,0-.61-.34-.66-1.21-1.37-1.45-.11-.03-.21-.07-.31-.11-.57-.09-1.18-.33-1.52.42-.07.16-.16.29-.29.39-.54.2-.97-.32-1.49-.23,0-.06-.02-.13-.02-.19-.35-.69-.76-1.3-1.69-1.18-.35.04-.61-.16-.87-.39-.92-.84-1.84-1.68-2.87-2.39-.41-.28-.63-.67-.7-1.13-.46-3.1-.64-6.17,1.06-9.01.48-.8.37-1.65.24-2.54-.19-1.32-.31-2.58,1.3-3.37,1.25-.61,1.75-3.03,1.15-4.33-.21-.46-.45-.96-.36-1.44.32-1.69-.31-3.4.15-5.08.37-1.34-.07-2.63-.22-3.94.05-.6-.01-1.13-.74-1.29-.49-.27-.58-.87-1.01-1.2-.46-.28-.94-.54-.99-1.18-.04-.44-.29-.77-.65-1.01-.25-.17-.44-.38-.51-.68-.52-2.2-1.86-3.51-4.12-3.82-.46-.06-.7-.31-.93-.72-.56-1.01-1.21-1.82-2.48-2.21-1.11-.34-2.11-1.12-3.19-1.67-.69-.35-1.34-.42-1.97.1-.28.08-.48-.05-.65-.24-.13-1.99-1.92-2.31-3.2-3.1-.6-.37-1.04.24-1.45.64-.78.18-1.33-.24-1.84-.74-.14-.21-.16-.46-.22-.7-.3-1.21-.84-1.36-2.11-.59-.3.16-.6.1-.89-.02-.12-.05-.22-.12-.32-.19-.14-.12-.25-.27-.32-.45-.06-1.01-.66-1.36-1.55-1.79-1.46-.71-2.95-1.32-4.44-1.94-.78-.32-1.43-.35-2.08.21-.35.1-.62-.04-.84-.31-.12-1.18-.76-1.88-1.95-1.98-1.8-.16-2.78-1.82-4.4-2.34-.76-.24-1.55-.53-2.27-.97-.54-.34-1.03,0-1.48.31-.83.01-1.49-.32-1.97-1-.05-1.51-1.09-2.24-2.3-2.75-.71-.3-1.18-.9-1.83-1.25-.18-.92-.96-1-1.66-1.18-.55-.68-1.27-.9-2.12-.79-.51-.25-.44-.74-.47-1.17-.03-.45-.16-.8-.67-.86-.29-.07-.55-.17-.79-.34-.3-.26-.65-.43-1-.58-.59-.4-.87-1.11-1.47-1.5-.26-.32-.37-.75-.74-.98-.08-.07-.14-.16-.19-.25-.15-.47-.54-.6-.95-.73-.85-.65-1.32-1.62-2.04-2.37-.13-1.16-.89-1.82-1.86-2.3-.4-.15-.78-.32-1.04-.67-.26-.45-.15-1.04-.58-1.42-.26-.31-.49-.63-.61-1.02-.08-.62-.74-.54-1.07-.87-.24-.52-.48-1.05-.87-1.49-.23-.39-.16-.81-.12-1.21.09-1-.15-1.73-1.33-1.78-.21,0-.39-.13-.54-.28-.17-.33-.33-.67-.5-1,1.29-.98,1.26-.97.65-2.44-.41-.98-.56-2-.23-3.04.24-.75.11-1.43-.17-2.17-.78-2.08-1.04-4.19.07-6.27.44-.82.37-1.72.24-2.57-.24-1.61.43-2.93,1.21-4.2.35-.58.63-1.16.76-1.82.27-1.31.87-2.44,1.62-3.57.77-1.16,1.34-2.46,2.11-3.65.87-1.35,1.89-2.5,3.29-3.29,1.7-.96,2.65-2.59,3.76-4.09.1-.13-.06-.03.06-.1,1.73-1.06,2.52-3.23,4.66-3.81,1.09-.29,1.99-.89,2.82-1.73,1.06-1.07,2.43-1.8,3.84-2.34.71-.27,1.35-.65,2.01-.98.87-.43,1.7-.85,2.71-.79.39.02.72-.16,1-.45.17-.18.36-.4.61-.42,2.85-.27,5.28-1.93,8.14-2.33,2.4-.34,4.83-.6,7.2-1.11,1.5-.32,2.97-.65,4.51-.76.79-.05,1.57-.14,2.35.02,1.54.31,3.06-.17,4.6-.17,3.49,0,6.99-.03,10.48.02.98.01,1.69-.23,2.12-1.13h.25c.42.98,1.18,1.31,2.19,1.08,1.05-.24,2,.48,3.04.28.44.03.71-.22.95-.54.66-.56.66-1.43.99-2.15.36-.36.77-.37,1.21-.17,1.87.97,3.45,2.4,5.23,3.46,1.48.88,2.48,2.13,3.74,3.09,2.05,1.57,3.46,3.71,5.48,5.25.43.52,1.14.78,1.38,1.49.01,1.23.73,2.2,1.39,3.09.5.68.77,1.32.76,2.12-.04.6.64.66.83,1.09.13,1.87,1.45,3.48,1.16,5.44-.04.4.07.8.03,1.2-.17.6-.27,1.21-.34,1.83-.12,1.11-.27,2.21-1.07,3.12-.7.79-.55,1.88-.78,2.84-.17.41-.68.41-.91.76-.06.09-.14.17-.21.24-.36.25-.56.6-.61,1.04-.11.38-.16.78-.35,1.13-.31.36-.7.61-1.05.91-.7.4-.79,1.05-.73,1.76,0,.44.02.89-.18,1.3-.66,1.54-2.06,2.77-1.95,4.63-.58.72-.87,1.46-.21,2.29.29,1.23,1.42,1.19,2.3,1.54.05.12.08.24.06.36-.69,1.78.22,3.22,1.07,4.63.52.86.71,1.74.68,2.71-.03.83.21,1.44,1.08,1.89.77.4,1.37,1.19,1.63,2.08.28.97.72,1.84,1.19,2.72.46.86,1.08,1.32,2.03,1.4.55.26.9.64.76,1.3-.71,1.46-.58,1.92.59,2.86.78.62,1.47,1.36,1.76,2.35.19.63.52,1.11,1.01,1.53.68.58,1.51,1.06,1.56,2.13.02.34.35.59.69.65.93.16,1.08.81,1.24,1.61.39,1.88,1.18,3.57,2.24,5.21.69,1.06,1.47,2.19,1.64,3.55.13,1.01.49,1.93,1.07,2.77.12.17.31.35.3.54-.05,1.89,1.17,3.43,1.47,5.22.03.16.03.34.1.49,1.84,3.33,1.7,7.08,1.99,10.67.26,3.1,1.14,6.19.67,9.34-.11.74.98.98.63,1.76,0,.08-.02.15-.05.22-1.11.9-1.36,2.14-1.36,3.47,0,1.14-.07,2.25-.76,3.22-.15.21-.25.46-.22.71.31,2.31-.9,4.2-1.74,6.19-.34.81-.34,1.62.07,2.41.06.17-.04.23-.18.26-.33.31-.76.29-1.17.34-.5.05-.91.26-.97.8-.17,1.55-1.28,2.31-2.41,3.14-1.41,1.04-2.68,2.25-2.7,4.22l-.75.5c-1.96-.57-2.88.94-4.01,2.02-.33.37-.77.49-1.25.5-1.21-1.36-2.5-.22-3.7-.03-1.71.26-3.31.61-5.08.03-1.14-.38-2.17.48-2.88,1.47-.34.26-.78,0-1.13.23-.08.01-.15.03-.22.07Z"/>
  <path d="m72.75,4.59c.18,1.17-.36,1.5-1.49,1.48-3.58-.06-7.16.01-10.73-.04-1.5-.02-2.96.45-4.46.26-.98-.12-1.95-.09-2.93-.09-2.95,0-5.67,1.58-8.65,1.1-1.82,1.4-4.29.39-6.16,1.66-.35.24-.9.17-1.31.34-1.17.48-2.58.68-3.53,1.18-1.03.55-1.98.58-2.96.88-.69.21-1.39.63-2.05,1-.62.34-1.13.81-1.91.7-.27-.04-.44.13-.56.4-.09.22-.24.56-.41.59-2.42.41-3.43,3.4-6.17,3.35-.42,0-1.1.85-1.38,1.54-.09.22-.04.6-.28.65-2.25.45-2.42,2.84-3.84,4.04-.64.53-1.26,1.1-2.01,1.54-1.21.7-2.27,1.68-2.9,3-.35.73-.92,1.3-1.34,2-.49.83-.82,1.73-1.48,2.53-.65.78-1.17,2.09-1.15,3.35,0,.39-.17.66-.42.98-.94,1.19-1.53,2.48-1.38,4.11.11,1.14.04,2.25-.56,3.45-.84,1.71-.66,3.73.3,5.48.34.62.42,1.24.25,1.78-.43,1.4-.46,2.61.44,3.91.69,1.01,0,1.9-1.35,2.02-.6-2.22-1.33-4.41-1.33-6.75,0-.17,0-.33,0-.5-.13-2-.13-4,0-6,.31-5.17,2.11-9.85,4.68-14.29,1.09-1.89,2.35-3.65,3.62-5.42.58-.24.74-.85,1.1-1.28,2.87-3.39,6.26-6.19,9.93-8.64,4.83-3.22,10.07-5.59,15.69-7.15,2.32-.64,4.7-1.05,7.01-1.75.54-.4,1.12-.45,1.75-.25,1.25-.17,2.5-.33,3.75-.5,1.2-.51,2.43-.84,3.75-.5,2.18.06,4.33-.27,6.49-.42,3.89.19,7.79.03,11.68.09.7.01,1.41-.11,2.1.1.08,0,.15.03.22.06Z"/>
  <path d="m95.2,52.77c-1.21.14-2.21-.07-2.45-1.5-.3-.79-.55-1.58.25-2.25,0-.58,0-1.16,0-1.75,0-.29-.03-.69.24-.79.79-.3,1.02-.87,1.05-1.64.01-.38.34-.54.71-.56.41-.5.31-1,0-1.5-.02-.78-.07-1.59,1-1.75.34-.24.82-.3,1-.75-.03-.44.01-.86.25-1.25.18-.39.31-.81.75-1v-.25c.18-.47.7-.27,1-.5-.07-1.45.15-2.75,1.2-3.91.58-.65.47-1.71.54-2.61.04-.55.04-1.08.51-1.47.24-.41-.18-.66-.25-1-.02-1.29.04-2.55-.86-3.7-.35-.44-.11-1.35-.14-2.04-.4-.16-.8-.32-1-.75.47-1.46-.86-2.25-1.4-3.24-.43-.79-.56-1.46-.59-2.26-.08-.75-.86-.8-1.25-1.25-1.22-.38-1.7-1.6-2.59-2.35-.55-.46-1.32-.9-1.44-1.79-.02-.12-.21-.3-.33-.31-1.51-.12-2-1.18-2.46-2.41-.22-.6-1.07-.63-1.66-.86-.25-.1-.66.03-.8-.23-.52-.97-1.61-1.2-2.31-1.85-.89-.82-1.98-1.23-2.9-1.94-.33-.72-.67-.23-1,0,0,.9,0,1.8-1,2.25-.19.31-.44.56-.75.75-1.56.06-3.09-.41-4.67-.28-1.02.08-.79-.81-.83-1.43.17-.03.33-.06.5-.08.58-.4,1.17-.38,1.75,0,.43,0,.75.46,1.22.26.47-.26,1.04.13,1.49-.25,0-.32,0-.65,0-.97-.25-.42,0-.71.25-1,.27-.41.53-.81.8-1.22.18-.06.43.03.5-.25.16-.03.33-.05.49-.08.33.02.66.05.99.07.09.29.3.23.51.19.51-.11.88.22,1.24.47,6.15,4.17,11.95,8.7,16.05,15.06,1.32,2.05,2.24,4.26,3.05,6.53.28.95.42,1.93.5,2.91.11.59.26,1.18.23,1.79,0,.4,0,.79,0,1.19-.22,4.2-1.92,7.87-4.06,11.39-1.49,2.45-3,4.9-3.92,7.64-.09.34-.21.67-.29,1.01-.09.37-.21.73-.08,1.11.18.86,1.1,1.43.97,2.42Z"/>
  <path class="cls-4" d="m72.53,4.53c-4.28,0-8.56.01-12.84.02-.32,0-.67.09-.94-.2,4.42-.01,8.84-.03,13.26-.04.2,0,.42-.01.52.23Z"/>
  <path class="cls-31" d="m52.27,4.76c-1.25.17-2.5.33-3.75.5.03-.12.03-.32.09-.34,1.14-.33,2.25-.94,3.5-.59.09.02.11.28.16.43Z"/>
  <path class="cls-31" d="m75.25,4.51c-.58,0-1.17,0-1.75,0-.01-.51.12-.89.72-.95.72-.07.93.37,1.03.95Z"/>
  <path class="cls-31" d="m44.77,5.75c-.6-.03-1.12.49-1.75.25.42-1.23,1.09-.66,1.75-.25Z"/>
  <path class="cls-31" d="m78.21,2.55c.19.4-.32.63-.25,1-.33-.04-.47-.24-.44-.56.04-.45.38-.42.69-.44Z"/>
  <path class="cls-30" d="m77.97,4.52c-.42.58-1,.16-1.49.25.44-.44,1.01-.09,1.49-.25Z"/>
  <path class="cls-13" d="m114.23,3.3h.25c.72.33,1.34.83,2.03,1.2.28.15.73.11.78.51.05.45-.36.61-.69.79-.18.09-.39.13-.52.45,1.15.32,1.24,1.27,1.27,2.25.01.37,0,.75,0,1.12,0,21.3,0,42.61,0,63.91,0,.96,0,1.92-.14,2.86-.15,1-.47,1.94-1.45,2.48-.28.08-.54.01-.76-.18-.36-.38-.01-.74.05-1.12-1.07.67-1.26.56-1.45-.91-.05-.11-.08-.22-.1-.33-.22-.75.55-1.18.65-2.16-.32.57-.59.8-.97.88-.44.08-.81.05-1.1-.36-1.29-1.81-1.21-2.21.85-3.48-.29-.24-.56-.13-.79-.01-1.34.7-2.43-.02-3.52-.63-.82-.46-.53-1.43-.91-2.1-.08-.13.36-.33-.11-.4-1.36-.2-1.62-1.38-1.51-2.36.13-1.17-.25-2.32.05-3.52-.29.32-.52,1.05-.91.2-.38-.82-.94-1.14-1.85-1.18-1.1-.05-1.52-.95-1.08-2.25.25-.74.63-1.33-.63-1.42-.51-.04-.62-2.38-.14-2.68.2-.12.51-.09.52-.54-.85-.17-1.76-.33-1.27-1.65.13-.35-.5-.46-.87-.5-.55-.06-1-.27-1.07-.86-.06-.52.23-.89.57-1.31.74-.9,1.71-1.68,1.78-3.01.04-.76.39-1.44.04-2.28-.31-.76.03-1.53.89-1.96.71-.35,1.2-.88,1.08-1.78-.05-.38.1-.76.41-1.01.61-.49.68-1.1.51-1.8-.24-.98.29-1.37,1.14-1.55.64-.14,1.71.1,1.67-.86-.04-.92.96-2.18-.6-2.8-.07-.03-.17-.13-.15-.18.41-1.18-.61-2.47.22-3.57.73-.96,1-1.85.34-2.97-.51-.87.5-1.63.31-2.55-.5.21-1.05.62-1.57.11-.46-.45-.25-1.01-.09-1.53.19-.58.04-1.03-.36-1.48-1.09-1.21-1.08-1.51-.03-2.94.12-.17.16-.37.06-.6-.3.69-.81,1.21-1.5.8-.62-.37-.06-.85.22-1.23-1.33-.41-1.55-.97-.91-2.32-1.69.47-1.75-1.03-2.15-1.92-.49-1.09.43-1.68,1.21-2.28-1.25-1.58-2.88-2.8-4.14-4.37-.37-.46-1-.85-.65-1.45.35-.6,1-.94,1.77-.94,3.64.01,7.28.09,10.92.04,1.46-.02,2.95.24,4.38-.27Z"/>
  <path class="cls-13" d="m113.73,76.51c.13.1.25.2.38.31.36.3-.56.7.01.9.6.2.54-.45.73-.76.05-.08.21-.13.32-.12.26.03.26.26.31.46.14.54-.49.74-.49,1.21-.16.19-.46.2-.57.43-.18.39-.06.77.31.93.49.21.5-.24.57-.54.05-.2.06-.4.19-.57.79-.56,1.31-1.33,1.4-2.26.12-1.27.1-2.55.1-3.83,0-21.28,0-42.56,0-63.84,0-.42.06-.86-.06-1.24-.11-.35.04-1.12-.86-.73-.2.09-.87-.28-.93-.69-.08-.59.57-.47.91-.58.41-.14.86-.14,1.15-.67-1.44.21-2.02-.8-2.71-1.63.66,0,1.32,0,1.97.01.53.01,1.93,1.59,1.88,2.16-.38,4.96-.15,9.93-.17,14.89-.05,11.86-.04,23.72,0,35.58.02,6.14-.05,12.29.1,18.43.06,2.41-.2,4.82.05,7.23.06.61-.44,1.12-.23,1.75.05.15-.14.28-.33.3-.11-.8-1.29-.78-1.28-1.7,0-.43.22-1.03-.29-1.25-.6-.26-.61.53-.96.74-.13.08-.26.15-.59.35.98.21,1.16.76,1.12,1.5-.02.31.15.63.23.95-.7-.11-1.21-.37-.89-1.22.01-.04.04-.11.04-.11-1.62-.75-1.22-3.11-3-3.75.56.89.24,1.94.61,2.84-.13.25-.29.41-.59.22-.07-.1-.13-.21-.16-.33-.03-.93-.24-1.78-.83-2.55-.31-.41-.64-.89-.52-1.48.28-.39.6.05.93-.07-.71-.97-1.45-1.82-2.83-1.2-.37-.16-.59-.44-.69-.83-.04-.39.08-.73.36-1.01.67.32,1.28.12,1.87-.22.39.39.68,1.01,1.42.57-.19-.88-.62-1.61-1.26-2.22-.15-.14-.28-.33-.49-.36-.33-.05-.75-.08-.84.31-.1.4.31.42.59.44.92.07,1.36.39.71,1.3-.64-.37-1.25.02-1.87.07-.45-.09-.9-.21-1.33-.38-.11-.49.48-.6.55-1.08-.47.08-.62.62-1.04.67-.7-.14-.91-.73-1.16-1.28-.28-1.2,1.1-1.29,1.47-2.26-.51-.01-.89,0-1.09.52-.15.38-.31.76-.69.99-.99-.33-1.37-1.12-1.53-2.06-.18-.37-.22-.83-.68-1.01-.91-1.1-1.57-2.34-1.97-3.71.77-1.03.87-.99,2.19.73-.52-.82-.54-1.77-.79-2.66-.09-.3.13-.78-.55-.67-.48.08-1.04-.12-.97.7.02.3-.14.56-.44.69-1.01-.44-1.34-1.37-1.69-2.29.02-1,.86-.6,1.38-.67-.11-.55-.53-.75-.78-1.06-.46-.59-.92-1.15.07-1.69.22-.12.41-.37.11-.59-.3-.21-.55-.04-.7.26-.26.52-.29,1.3-1.21,1.06-.62-.61-.83-1.37-.82-2.21.26-.53.73-.58,1.25-.57.39.01.6-.23.64-.61.02-.17-.01-.35-.2-.4-.34-.09-.51.19-.73.36-.32.26-.52.63-.82.91-1.11-.83-1.38-2.08-1.71-3.32-.01-.08-.04-.16-.08-.24-.36-.85-1.13-1.51-1.24-2.49.16-.33.76-.62.08-1.01-.19-.4.3-.63.25-.99.58-.26,1.13.08,1.78.09-.38-1.03-.24-1.95.52-2.73.24-.25.42-.51.41-.88-.02-.87.5-1.28,1.25-1.47.6-.16.95-.37.4-.99-.56-.63-.2-1.11.38-1.39.57-.28.72-.65.75-1.26.09-1.48,1.38-2.35,2.84-1.83-.48-.78-1.14-1.37-.86-2.28.13-.43.08-.96.62-1.12.61-.18.91.25,1.15.7.06.11.12.22.24.27.37-.76.34-.91-.31-1.46-.67-.57-.83-2.83-.25-3.48.18-.2.39-.33.66-.25.53.15.77.53.79,1,.84-1.38.46-2.74,0-4.24-.42-1.39-1.08-2.75-1.09-4.32-.77-.07-1.17,1.16-2.06.66-1.01-2.93-2.38-5.67-4.27-8.16-2.16-2.85-4.59-5.4-7.37-7.65-2.21-1.79-4.42-3.56-6.77-5.18-.53-.36-1.08-.7-1.62-1.04,0-.36.01-.7.5-.71,2.41-.2,4.07,1.24,5.56,2.78.86.9,2.01,1.12,3,1.54.39.17,1.69-.3,2.64-.86-.48-.22-.86-.4-1.54-.72h22.58c-.8.52-1.6,1.1-2.61.46-.34.74-1.14-.34-1.49.37-.32-.83-1.13.52-1.45-.32-.42.17-.86.04-1.26.05-.95.03-1.94-.12-2.81-.03-1.93.2-3.81-.41-5.71-.1-.66.11-1.26.47-1.55.92-.28.45.55.7.76,1.04.63,1.07,1.76,1.63,2.45,2.66.28.42.77.97,1.19,1.2.55.3.57.51.52,1.02-.07.78-.27.47-.7.23-.21-.12-.77,1.54-.49,1.77.31.26.24.54.29.87.14.89.77,1.06,1.44.45.12-.11.22-.28.41-.15.2.13.24.33.12.54-.16.29-.39.55-.51.85-.27.74.04,1.18.78,1.38.22.06.37-.47.57-.1.11.21,0,.48-.19.68-.18.2-.57.27-.46.66.05.2.22.24.39.17.32-.14.77-.11.79-.64,0-.28-.05-.6.27-.77.71.91.69,1.12-.16,1.86-.5.43-.46,1.6.17,2.02.89.59,1.08,1.27.6,2.21-.18.36-.31.87.14,1.11.45.23.89.13,1.05-.48.04-.16.18-.3.37-.25.23.06.35.3.3.49-.39,1.47-.5,2.93,0,4.39.02.07,0,.2-.05.24-1.38,1.14-.55,2.83-1.05,4.18-.12.32-.1.69.32.58,1-.28.8.49.76.9-.06.73-.08,1.44-.06,2.17.02,1.13-1.03.92-1.62.95-1.07.06-1.67.26-1.3,1.5.2.66.21,1.32-.56,1.7-.34.17-.53.52-.41.83.46,1.21-.49,1.61-1.19,2.13-1.06.79-1.16,1.41-.28,2.45.15.18.24.52.13.54-1.13.28-.51,1.18-.68,1.79-.1.35-.12.72-.57.87-.67.23-.6.77-.58,1.36.04.81-1.02-.46-1.12.54-.07.74-.33,1.26.82,1.23,1.18-.03,1.42.44.94,1.46-.07.16-.2.29-.03.41.19.14.42.35.67.16.25-.18.46-.41.72-.05.23.33.2.73.11,1.08-.15.55-.55.08-.83.16-.08.02-.15.06-.3.13.29.65.69,1.32-.05,2.38.97-.69,1.37-.26,1.75.15.39.43-.08.65-.28.93-.42.61-.38,1.33-.14,1.91.22.55.89.33,1.42.33.99,0,1.31.8,1.59,1.63.29-.31-.03-.84.48-1.1.5.4.39.97.38,1.53,0,1.18-.09,2.36.06,3.52.09.78.32,1.79,1.58,1.12.16-.09.34-.02.43.14.04.08.01.23-.04.33-.17.33-.33,1.58-.15,1.82.16.23.38.46.63.57,1.14.48,2.27,1.01,3.52.28.33-.19.81-.32.87.23.03.27.21.93-.63.87-.34-.03-.7.48-1.21.5-.25,0-.09.28,0,.47.26.55.7,1.02.75,1.68.02.27.24.44.54.35.36-.11.89.02.92-.61.01-.25.1-.57.4-.52.35.05.34.42.34.71,0,.33.03.67-.32.88-.48.29-.43.76-.43,1.23-1.49-.13-.9.9-1.01,1.87.66-.66.46-1.47,1.01-1.87Z"/>
  <path class="cls-13" d="m121.11,3.19v89c-.57-.83-.85-3.02-.56-4.23.13-.54.18-1.06.18-1.6,0-26.72,0-53.44.03-80.16,0-.89-.73-1.85.34-3.01Z"/>
  <path class="cls-13" d="m90.93,3.66c-.55.2-.88.14-1.07-.25-.03-.07.05-.27.12-.29.44-.15.63.18.95.54Z"/>
  <path class="cls-13" d="m120.46,2.48c-.17-.04-.34-.13-.32-.3.02-.23.21-.34.43-.34.17,0,.35.07.31.28-.04.21-.18.36-.42.37Z"/>
  <path d="m112.22,82.04c0,.08.01.15.05.22.2.11.35.25.25.5.5,1,1,2,1.5,3,1.05,1.13,1.57,2.49,1.75,4,.08.17.17.33.25.5.62.44.52,1.16.7,1.78,0,.08.02.15.05.22.58.73.97,1.52.75,2.5.08.25.17.5.25.75.72.59.85,1.38.75,2.25.34.81.18,1.75.67,2.51.24.22.24.47.07.74.72,3.34,1.26,6.71,1.51,10.13.09,1.18,0,2.43.43,3.59-.24.6-.05,1.22-.11,1.83-.03.48.08.97-.08,1.45,0,.33,0,.67,0,1-.2.49.23,1.09-.28,1.52-1.63-1.04-.76-2.71-.98-4.09-.23-1.48.35-3.08-.72-4.46-.16-.21-.08-.65-.04-.98.31-2.57-.17-5.07-.68-7.57-.22-1.08.17-2.24-.55-3.25-1.01-1.42-1.35-3.19-1.77-4.77-.45-1.66-1.17-3.16-1.7-4.76-.32-.97-.04-2.15-1.2-2.75-.58-2.28-2.36-4.03-2.8-6.37-.06-.32-.06-.66-.05-.99.02-.51-.17-.82-.72-.76-.54.05-1.08-.28-1.1-.64-.11-1.5-1.16-2.1-2.24-2.74-.11-.06-.16-.28-.18-.44-.21-1.55-1.13-2.53-2.43-3.3-.94-.56-.83-2.28.12-2.88.59.62.82,1.5,1.53,2.03.44.07.3.52.5.75.39.37.47.99,1,1.25.42.03.31.54.62.67.54.28.61.87.88,1.33.18.24.37.48.55.72.34.14.57.39.75.7.9,1.61,2.12,3.04,2.7,4.83Z"/>
  <path d="m116.69,136.73c-.87-.55-1-2.1-.15-3.09.34-.4.45-.75.44-1.21-.01-.51-.02-1,.61-1.21.55-.18.36-.68.38-1.07.08-1.24-.26-2.51.71-3.64.42-.49.37-1.34.3-2.06-.11-1.02.2-1.96.51-2.92.2-.62.57-.88,1.2-.8-.18,5.62-1.38,10.98-4,15.99Z"/>
  <path d="m91.49,149.93c-.05-.7.09-1.25.97-1.22.27.01.45-.15.6-.36.43-.57,1.15-.54,1.59-.31,2.31,1.25,4.44.14,6.59-.44,1.13-.31,1.77-.14,2.01.9-2.02.9-4.16,1.3-6.35,1.48-.64.05-1.27.19-1.91.28-.18.11-.37.14-.58.09-.61-.43-1.3-.2-1.95-.26-.32-.05-.68.13-.97-.16Z"/>
  <path d="m109.26,145.49c-.46-.81-.16-1.4.26-2.21.96-1.83,3.03-2.39,4.13-3.99.14-.21.35-.36.32-.63-.17-1.6.81-1.78,2.04-1.67.17.01.33,0,.5.01-.58,1.58-1.69,2.83-2.62,4.18-1.22,1.77-2.85,3.12-4.63,4.31Z"/>
  <path d="m104.5,148c-.04-.66-.03-1.28.89-1.28.21,0,.45-.02.52-.25.13-.49.21-.96.89-1,.65-.04,1.22.1,1.72.52-1.32.71-2.47,1.75-4.01,2.02Z"/>
  <path class="cls-12" d="m94.52,150.2c.16.02.31.04.47.06,0,.16-.01.32-.02.49-.33-.01-.65-.03-.98-.04,0-.15,0-.31,0-.46.16-.18.34-.15.52-.05Z"/>
  <path class="cls-13" d="m73.78,146.21c-.83.66-1.33-.34-2.1-.43.33.67.15,1.42.67,2.03.28.33-.18.72-.48.6-1.22-.48-2.38.09-3.57.09-18.64-.04-37.29-.02-55.93-.03-2.69,0-5.4.21-8.08-.24-.03-.6.65-.59.85-.98.58-.42,1.26-.39,1.92-.39,10.24-.02,20.49-.02,30.73,0,8.2.01,16.39-.01,24.59-.01,2.47,0,4.94.45,7.45-.09-.33-1.03-1.12-1.95-1.6-3.04-.97-2.23-.92-4.33.18-6.48.81-1.58,1.37-3.15,1.03-5.1-.28-1.61.13-3.44,1.18-4.82,1.48-1.95.99-4.2,1.14-6.33.09-1.28-.14-2.56.59-3.74.33-.54.29-1.2-.11-1.65-1.64-1.85-2.65-4.29-4.82-5.61-1.23-.76-1.74-1.83-2.24-3-.3-.69-.25-1.32.6-1.61.84.05,1.24.77,1.81,1.21.46.35.84.81,1.48.82.27,0,.58.11.57.38-.03.96.54,1.39,1.33,1.7.39.15.57.55.44.93-.33,1.04.26,1.64.96,2.22.13.15.33.3.35.48.18,1.26.86,1.54,1.96,1.06.09.07.16.16.19.27.02.16.03.36-.08.46-.63.59.03.7.34.94.17.35.16.71.04,1.07-1.5,1.7-.7,3.78-.87,5.68-.05.61-.64,1.61.44,2.08.31.39.16.82.12,1.24-.06.33-.17.66-.42.88-1.4,1.18-1.75,2.82-2.01,4.51-.2.9-.46,1.8-.23,2.74-.33,1.6-1.1,3.08-1.23,4.74-.16.45-.41.9-.06,1.38.08.29.08.57-.08.84-.47.28-.98.54-.18,1.05.25.16.36.5.29.78-.19.86.37.96.99,1.02.76.68,1.55,1.34,1.81,2.39Z"/>
  <path class="cls-13" d="m5.29,147.48c-.13.52-.75.39-1,.75-.55.3-1.14.43-1.5-.18-.43-.72-.81-.38-1.24-.07v-1.75c.25-.47.12-.98.12-1.47,0-25.51,0-51.01.01-76.52,0-.49-.12-1,.11-1.47-.55-1.78-.3-3.6-.26-5.42.02-.63-.03-1.21.9-.85.29.11.56-.08.81-.23.66.27.71.83.68,1.43-.16.41-.54.61-.85.86-.47.39-.66.76-.26,1.36.51.75.06,1.6.08,2.4-.53.81.19,1.59.05,2.39-.16,1.29.1,2.58.1,3.87-.02,14.61,0,29.23-.02,43.84-.01,8.03.04,16.05,0,24.08,0,1.54.08,3.08-.08,4.61.09-7.27.08-14.55.08-21.82,0-17.31,0-34.62,0-51.93,0-.37-.08-.76.2-1.08.61-.05.6.47.72.82.26.81.2,1.65.2,2.48-.03,15.07,0,30.14,0,45.22,0,8.16,0,16.32,0,24.48,0,.46.02.92,0,1.37-.04,1.12.09,2.15,1.14,2.82Z"/>
  <path d="m70.71,138.98c0-1.77.73-3.35,1.3-4.97.32-.91.32-1.84.26-2.79.03-1.64.34-3.18,1.68-4.31.38-.32.61-.74.81-1.17.16-.47.15-.94-.06-1.4-.09-.78-.03-1.56-.06-2.34,0-.71,0-1.42,0-2.12,0-.53.02-1.07,0-1.6-.1-.47.05-.89.3-1.28,0-.42,0-.83,0-1.25-.38-.38-.04-.86-.2-1.27,0-.08-.02-.15-.05-.23-.81-1.03-1.83-1.96-1.79-3.43.43-.32.88-.22,1.33-.06.25.42.5.83.75,1.25.7.12.89.66,1,1.25.87,2.45-.3,4.97.23,7.43.07.31,0,.67-.09.98-.27.91-.04,1.69.47,2.44.54.79.66,1.63-.02,2.39-.45.5-.93.94-.89,1.69.01.26-.21.45-.48.51-.42.1-1.07-.06-1.14.52-.08.68-.43,1.35-.2,2.06.43,1.29,0,2.35-.44,3.61-.66,1.9-2.09,3.89-.75,6.09.02.03.03.09.02.12-.83,2.78,1.51,3.51,3.01,4.85.61.55,1.09.83,1.91.83.93,0,.89.79.84,1.48-1.76-.23-3.22-1.16-4.71-2.04-.61-.75-1.22-1.49-1.83-2.24-1.06-.73-1.24-1.83-1.24-3,0-.33,0-.67,0-1-.21-.33-.1-.66,0-1Z"/>
  <path class="cls-13" d="m1.79,66.77c0,25.97,0,51.94,0,77.91,0,.52.21,1.09-.24,1.54,0-25.97,0-51.94,0-77.91,0-.52-.21-1.09.24-1.54Z"/>
  <path d="m3.82,61.76c-.19-.5-.38-.99-.57-1.49-.07-.52-.48-.94-.42-1.5.29,0,.57,0,.86,0,.92-.03,1.32.39,1.37,1.32.03.65-.26,1.29-.02,1.93-.19.25-.47.32-.76.35-.35-.05-.48-.28-.47-.61Z"/>
  <path class="cls-24" d="m1,44.53c0,2,0,4,0,6-.42-.63-.11-1.34-.22-2,.15-1.33-.25-2.69.22-4Z"/>
  <path class="cls-13" d="m115.77,89.75c-.58-1.33-1.17-2.67-1.75-4,1.08-.7,1.15-.68,1.2.59.02.49.16.79.58,1.11.91.69.87,1.46-.03,2.3Z"/>
  <path class="cls-13" d="m117.52,94.75c-.25-.83-.5-1.67-.75-2.5.04,0,.09-.01.12,0,.51.23,1.1-.63,1.53.09.37.62-.1,1.77-.91,2.41Z"/>
  <path class="cls-13" d="m118.52,97.75l-.75-2.25c.64-.04,1.38-.46,1.7.58.3.95-.2,1.36-.95,1.67Z"/>
  <path class="cls-13" d="m116.72,92.03c-.28-.58-.67-1.1-.7-1.78.44-.24.97-.48,1.34-.04.35.42-.06.81-.35,1.16-.15.18-.19.43-.29.65Z"/>
  <path class="cls-13" d="m119.27,101c-.02-.25-.05-.49-.07-.74.26.03.65-.12.67.28.02.32-.3.43-.6.46Z"/>
  <path class="cls-5" d="m121.02,116.5c0-.6-.24-1.23.19-1.78.01.51.03,1.02.04,1.53-.02.08-.03.16-.03.24-.06.11-.12.12-.2.01Z"/>
  <path class="cls-13" d="m112.52,82.76c-.08-.17-.17-.34-.25-.5.15-.08.31-.16.46-.25.38.37.33.63-.21.75Z"/>
  <path d="m84.5,149.43c.62-1.7.84-1.8,2.53-1.09.4.17.8.12,1.21.13,1.47.04,1.71.28,1.75,1.71-.25.03-.5.05-.75.08-1.11-.51-2.35-.25-3.5-.53-.41-.1-.89.08-1.24-.31Z"/>
  <path d="m80,148.68c0-.15,0-.31,0-.46.49-.85,1.24-.68,2-.5.7.26,1.17.63.75,1.46-.96.08-1.87-.13-2.75-.5Z"/>
  <path d="m82.75,149.18c.15-.69-.26-1.09-.75-1.46,1.21-.06,1.05,1.09,1.5,1.71-.33.16-.51-.14-.75-.25Z"/>
  <path class="cls-18" d="m121.02,116.5c.07,0,.13,0,.2-.01-.05.5.18,1.05-.2,1.51,0-.5,0-.99,0-1.49Z"/>
  <path class="cls-22" d="m94.52,150.2c-.17.02-.35.03-.52.05-.51-.02-1.01-.04-1.52-.05-.08-.05-.1-.09-.07-.13.03-.04.06-.06.08-.06.68.06,1.39-.29,2.03.19Z"/>
  <path class="cls-32" d="m92.5,150.01c0,.06,0,.12-.01.18-.25.02-.5.04-.74.05-.43-.02-.85-.03-1.28-.05.26-.42.7-.11,1.03-.27.33.03.67.05,1,.08Z"/>
  <path class="cls-13" d="m48.27,94.46c.09.09.18.19.28.28.03.21.12.14.22.05.25.08.49.16.74.24.94.16,1.85.4,2.51,1.18.56.31,1.09.69,1.74.82,1.19.16,2.15.8,3.1,1.47.17.28.4.43.74.37.41.03.69.27.91.58.17.08.33.17.5.25,1.03-.05,1.73.69,2.51,1.15,1,.6,2.11,1.09,2.86,2.06,0,.6-.51.9-.79,1.32-.11.06-.23.06-.35,0-.48-.22-.8-1-1.46-.57-.63.41-.06,1.07-.19,1.6-.08.17-.2.29-.36.39-.42.19-.77.48-1.12.78-.51.44-1.1.44-1.56-.07-.47-.52-.18-1.02.25-1.41.47-.42.91-.85,1.28-1.36.51-.69.25-1.16-.49-1.24-.85-.09-1.45-.51-2.07-1.04.05.63.46.93,1.01,1.12.32.11.66.25.55.69-.09.37-.39.52-.75.57-.33.05-.73.11-.98-.06-.85-.57-1.8-.86-2.72-1.27-1.14-.51-2.24-1.15-3.41-1.63-.57-.24-.8-.58-.68-1.14.15-.66.65-.66,1.18-.53.5.12.95.61,1.66.07-.73-.02-1.36,0-1.72-.67-.23-.43-.64-.26-.96.01-.16.14-.25.33-.38.49-.37.5-.89.94-1.47.56-.66-.43-.46-1.16-.01-1.64.68-.73.22-1.11-.39-1.18-1.75-.21-3.08-1.93-5.04-1.37-.41.12-.58-.23-.62-.6-.04-.3-.07-.6-.47-.62-.33-.02-.6.12-.69.43-.32,1.1-1.41,1.37-2.17,1.94-.99.75-2.71-.13-3.13-1.55-.18-.62-.46-.91-1.04-1.06-.66-.17-1.17-.5-.86-1.33.51-.8,1.02-1.06,1.89-.33,1.27,1.07,2.72,1.27,4.01.8-.02-.14-.12-.22-.24-.25-1.34-.32-2.66-.79-3.87-1.37-1.41-.68-1.39.27-1.69,1.03-.4.41-.59,1.04-1.19,1.23-.58.19-1.16.15-1.67-.21-.64-.46-.03-.95.04-1.67-1.28,1.48-2.3.24-3.38-.07-.67-.2-1.3-.54-.72-1.43-.56.51-1.19.6-1.81.16-.52-.36-.49-.87-.05-1.27.5-.45.89-.99,1.31-1.49.3-.35.46-.97,0-1.04-1.3-.19-2.1-1.85-3.72-1.15-.7.31-1.14-.11-.88-.93.2-.63-.16-.89-.66-.94-.88-.08-1.44-.54-1.85-1.28-.13-.24-.3-.55-.66-.44-.33.1-.36.43-.39.72-.05.42.12.82.1,1.24-.02.46-.21.82-.69.92-.49.1-.84-.21-.95-.62-.18-.65-.42-1.23-.85-1.76-.32-.4-.1-.79.29-1.05.26-.18.5-.34.18-.67-.07-.09-.13-.19-.18-.29-.07-1.31-1.14-1.9-1.94-2.69-.08-.49.09-.85.52-1.09.68-.18,1.04.33,1.47.69.53.45,1.1.85,1.66,1.25.24.17.46.37.69.55,2.09,1.58,4.32,2.93,6.54,4.32.52.33,1.1.59,1.49,1.1.58.33,1.17.67,1.75,1,.35-.07.65.08.95.23,2.84,1.46,5.75,2.8,8.64,4.15.27.13.49.3.66.55.24.13.43.36.74.32,1.49.25,2.77.97,4.04,1.73.06.37.27.48.61.32.64.03,1.19.3,1.69.67.19.28.43.42.78.36.46.04.87.18,1.14.59Z"/>
  <path d="m18.52,78.8c-.78-.29-1.37-.84-1.97-1.38-.29-.27-.48-.71-.98-.66-.37-.11-.66-.34-.92-.62-.27-.27-.54-.54-.82-.8-.98-.98-1.96-1.97-2.96-2.94-.79-.92-1.58-1.84-2.32-2.79-1.42-1.82-2.71-3.74-3.86-5.74-.27-.47-.76-.92-.4-1.57.17-.31.48-.27.76-.28.65.3.82.84.75,1.5.47.17,1.02.19,1.25.75-.04.43.36.65.5,1,.46.4.26,1.03.5,1.5.33.17.67.33,1,.5.88.66,1.87,1.23,2,2.5.93.52,1.19,1.63,2,2.25.53.13.87.47,1,1,.44.19.57.61.75,1,.9.1,1.03.97,1.5,1.5.32.19.72.23,1,.5.25.08.5.17.75.25,1.04.55,1.21,1.44.49,2.53Z"/>
  <path d="m64.27,102.97c-1.75-1.09-3.5-2.18-5.26-3.27.27-1.05,1.11-.87,1.68-.55,1.13.64,2.46.94,3.41,1.9.1.1.3.18.44.17,1.55-.13,1.9,1.18,2.42,2.15.24.45.42.65.88.61,1.38-.13,2.23.79,3.04,1.64.6.62,1.48,1.19,1.14,2.33-.1.34.24.46.52.58.35.15.72.43.67.82-.11.85.44,1.11,1.04,1.38-.43.06-.92-.18-1.26.28-.67.06-.78-.61-1.17-.91-1.56-2.1-3.49-3.82-5.57-5.38-.21-.17-.4-.36-.63-.51-.26-.17-.5-.37-.74-.57-.25-.18-.51-.36-.61-.68Z"/>
  <path d="m96.24,121.46c0,1.04.02,2.07,0,3.11-.02.6-.14,1.25-.82,1.36-.6.1-1.1-.02-1.73-.5-1.66-1.27-.61-2.88-.91-4.3-.14-.67-.05-1.4-.02-2.11.04-.98,1.3-2.07,2.27-2.03.82.03,1.21.43,1.22,1.24,0,.04,0,.08,0,.12,0,1.04,0,2.07,0,3.11Z"/>
  <path d="m101.23,65.05c.54,1.26,1.39,2.38,1.79,3.71-1.03.14-1.69-.21-2.17-1.21-.53-1.1-1.09-2.14-1.48-3.32-.18-.55-.62-1.61-1.68-1.74-.89-.11-.93-.97-.9-1.55.09-1.72-.49-3.11-1.57-4.4-.66-.79-.55-2.86.06-3.54.8.98.99,2.27,1.71,3.29.08.03.12.07.11.13-.01.06-.03.09-.05.09.12.79.38,1.54.75,2.25.65.81.93,1.79,1.2,2.77l1.5,2.25c.65.18.59.77.75,1.25Z"/>
  <path d="m115.45,126.99c-.95.19-1.56-.14-1.53-1.42,0-.51-.2-1.04-.19-1.58.04-1.81.91-2.47,2.64-1.97.31.09.57.25.57.57-.02,1.2.44,2.36.29,3.57-.1.78-.22.84-1.77.84Z"/>
  <path d="m39.27,90.46c-3.51-1.45-6.94-3.07-10.25-4.93.19-1.08,1.04-.93,1.62-.65,1.23.6,2.45,1.24,3.74,1.69.15.05.38.12.43.23.51,1.35,1.87,1.36,2.88,1.55,1.37.26,1.73.88,1.58,2.1Z"/>
  <path d="m27.27,84.54c-2.34-1.06-4.38-2.61-6.54-3.97-.6-.38-1.14-.85-1.71-1.28-.24-.37-.08-.61.26-.78,1.21-.46,1.51-.35,2,.75.77.15,1.71.07,1.75,1.25,1.5.57,2.82,1.44,4.03,2.47.44.38.17,1.03.21,1.55Z"/>
  <path d="m46.28,93.73c-.58-.25-1.17-.5-1.75-.75-.21.02-.38-.04-.49-.23-1.34-.65-2.69-1.31-4.03-1.96.19-1.07,1.05-.95,1.61-.65,1.5.8,3.32.87,4.62,2.1.11.11.3.2.44.2,1.43-.01,1.73.83,1.58,2.03-.42-.14-.84-.28-1.25-.42-.32.06-.55-.09-.74-.32Z"/>
  <path d="m58.51,99.46c-.33-.14-.67-.28-1-.42-.32.06-.55-.09-.74-.32-1.01-.56-2.01-1.13-3.02-1.69.3-1,.95-1.33,1.82-.85.85.47,1.59,1.1,2.54,1.46.75.29.28,1.19.39,1.81Z"/>
  <path d="m52.02,96.21c-.82-.42-1.79-.54-2.51-1.18.12-1.02.91-.79,1.53-.76.62.03.95.44.98,1.07.01.29,0,.58,0,.87Z"/>
  <path d="m19.28,78.51c-.09.26-.17.52-.26.78-.17-.16-.33-.33-.5-.49.41-.95.52-1.85-.49-2.53.72-.05,1.02.29,1.01,1,0,.42-.17.89.24,1.24Z"/>
  <path d="m11.04,69.77c-.35-1.08-1.32-1.68-2-2.5,1.17.26,1.97,1.27,2,2.5Z"/>
  <path d="m92.99,49.03c-.47.71-.28,1.49-.25,2.25-.64-.83-.9-1.62.25-2.25Z"/>
  <path d="m95.74,15.04c.46.38,1.58.08,1.25,1.25-.37-.46-1.09-.58-1.25-1.25Z"/>
  <path d="m23.03,80.51c-.18-.97-1.12-.9-1.75-1.25.88,0,1.92-.22,1.75,1.25Z"/>
  <path d="m94.99,42.78c.6.5.89,1,0,1.5v-1.5Z"/>
  <path d="m96.99,40.28c.28,1.06-.57.63-1,.75.22-.4.49-.73,1-.75Z"/>
  <path d="m82,147.72c-.72-.04-1.43-.05-2,.5.41-1.2,1.21-.81,2-.5Z"/>
  <path d="m76,113.24c-.29-.45-.51-.96-1-1.25.94-.07,1.05.53,1,1.25Z"/>
  <path d="m80.25,3.3c.19-.3.34-.72.69-.74.19,0,.3.44.31.74-.33-.24-.67,0-1,0Z"/>
  <path d="m100.99,28.29q.81.77.25,1c-.17-.31-.29-.64-.25-1Z"/>
  <path d="m7.04,64.27c-.42-.25-.83-.5-1.25-.75.56,0,1.18-.08,1.25.75Z"/>
  <path d="m8.04,66.77c-.37-.43-.33-1-.5-1.5.69.32.45.96.5,1.5Z"/>
  <path d="m14.04,73.01c-.33-.33-.67-.67-1-1,.72-.05,1.05.28,1,1Z"/>
  <path d="m97.99,38.03c-.25.33-.5.67-.75,1-.02-.54.1-.96.75-1Z"/>
  <path d="m14.79,74.01c-.25-.33-.5-.67-.75-1,.65.04.77.46.75,1Z"/>
  <path d="m98.99,21.79c.33.25.67.5,1,.75-.54.02-.96-.1-1-.75Z"/>
  <path d="m17.29,76.01c-.4-.04-.75-.17-1-.5.43-.02.81.04,1,.5Z"/>
  <path d="m98.99,37.28c-.33.17-.67.33-1,.5.08-.67.61-.45,1-.5Z"/>
  <path d="m78.5,6.3c.16-.34.41-.59.75-.75-.02.48-.27.73-.75.75Z"/>
  <path class="cls-13" d="m48.77,94.79c-.04.24-.11.62-.36.51-.27-.11-.09-.41.14-.56.08,0,.15.02.22.05Z"/>
  <path class="cls-13" d="m101.53,23.29c.67-.08,1.11-.52,1.56-.96.26-.26.56-.37.89-.12.31.24.18.52.03.78-.19.35-.16.62.02,1.02.83,1.86,1.43,3.83,1.55,5.86.04.67-.67,1.39-1.05,2.11-.35-.3-.05-.52-.07-.75-.04-.47-.27-.83-.75-.83-.42,0-.46.41-.46.76-.01.54,0,1.07-.19,1.6-.16.42.02.71.48.83.69.17.83.77.92,1.34.07.46-.09,1.02-.54,1.15-.46.13-.5-.46-.63-.77-.15-.36-.22-.75-.7-.74-.6.02-.34.52-.45.83-.25.76-.25,1.37.57,1.79.27.14.61.41.36.8-.24.38-.62.32-1.01.18-.28-.1-.4-.88-.82-.31-.44.61-1.47.95-1.2,1.9.26.88.04,1.17-.83,1.36-.52.11-1.05.54-.21,1.1.27.18.53.44.42.83-.13.46-.53.44-.9.5-.81.13-1.48.38-1.2,1.45.12.46-.35.61-.56.9-.55.71-1.08,1.41-.27,2.28.15.16.26.35.11.56-.14.21-.33.16-.55.09-.59-.19-1.18-.35-1.77-.52.44-1.76,1.35-3.3,2.2-4.88,1.66-3.06,3.75-5.89,4.8-9.26.49-1.59.8-3.2.98-4.84.2-.39.02-.83.13-1.23q.9-1.19-.37-1.78c-.17-1-.33-2-.5-3Z"/>
  <path class="cls-13" d="m102.03,26.29c.08,0,.17-.01.24,0,.45.09,1.23-.25,1.29.25.07.61-.22,1.38-1.1,1.5-.08.11-.14.1-.19-.03-.08-.58-.16-1.15-.25-1.73Z"/>
  <path class="cls-13" d="m94.04,49.28c.29.04.74-.36.83.13.11.59-.39.81-.91.89-.59-.39.29-.66.08-1.01Z"/>
  <path class="cls-20" d="m102.27,28.02c.06.01.12.02.19.03,0,.43.18.88-.19,1.25,0-.43,0-.85,0-1.28Z"/>
  <path class="cls-13" d="m115.48,78.76c.35.58.07,1.12-.18,1.61-.12.23-.43.04-.65-.08-.54-.29-.68-.73-.68-1.33.01-.99.62-.45,1.01-.46.17.08.33.17.5.25Z"/>
  <path class="cls-13" d="m106.49,38.8c-.08.36.1.96-.53.99-.23.01-.73-.48-.53-.69.42-.43-.02-1.36.68-1.4.46-.03.34.65.38,1.1Z"/>
  <path class="cls-13" d="m101.23,65.05l-.75-1.25c-.12-1.39.59-1.85,1.9-1.82.4,0,.67.12.51.38-.51.81.4,1.46.14,2.23-.04.11.17.36.32.48.37.31.48.67.28,1.1-.09.2-.29.34-.5.25-.41-.18-.65-.51-.63-.98.02-.52-.27-.77-.73-.83-.28-.03-.42.21-.53.45Z"/>
  <path class="cls-13" d="m98.98,61.54c-.62-.83-1.05-1.74-1.2-2.77.51-.05.71-.36.71-.84,0-.61.28-.92.9-.9.36,0,.67.1.79.47.19.59-.2.84-.67.98-.59.17-.5.44-.16.77.34.35.69.7,1.04,1.05.25.25.46.51.25.87-.21.37-.5.16-.75.05-.42-.19-.8-.35-.9.33Z"/>
  <path class="cls-13" d="m112.22,75.51c-.31.18-.45-.13-.75-.02-.88.32-1.38-.14-1.12-1.06.19-.65.1-1.08-.61-.86-.77.24-.97-.16-1.17-.7-.1-.26-.02-.62.26-.56.56.12,1.08-.69,1.67.07.73.94,1.38,1.9,1.72,3.12Z"/>
  <path class="cls-13" d="m112.22,82.04c-.98-1.59-1.96-3.19-2.95-4.78.68-.4,1.12-.1,1.46.5.23.52.35,1.15.72,1.53.79.81.83,1.75.76,2.75Z"/>
  <path class="cls-13" d="m110.73,77.76c-.47-.2-.89-.56-1.46-.5-.07-.32-.52-.38-.5-.75,1.18-.77,1.34-.74,2.28.37.08.09.16.21.26.26.44.19,1.13.29.59.97-.57.73-.73-.39-1.17-.35Z"/>
  <path class="cls-13" d="m99.28,46.37c.19.12.26.16.33.2,1.35.85.41,1.83.15,2.77-.05.18-.16.34-.33.21-.34-.27-.91-.23-1.06-.77-.05-.18-.06-.41.11-.42,1.43-.11.77-1.12.8-1.99Z"/>
  <path class="cls-13" d="m97.03,56.52c-.04-.07-.05-.14-.05-.22-.13-.96.84-1.14,1.27-1.69.13-.16.47-.09.67.11.4.41.18.85.04,1.28-.12.37-.39.6-.75.47-.42-.15-.79-.22-1.17.06Z"/>
  <path class="cls-13" d="m112.5,77.69c-.06-.25-.16-.53-.18-.8-.03-.49.31-.82.73-.82.5,0,.76.39.64.93-.06.28-.17.55-.2.83-.05.49-.13.98-.75.86-.59-.11-.47-.56-.24-1Z"/>
  <path class="cls-13" d="m105.73,72.54c-.17-.25-.33-.5-.5-.75-.05-.51.58-.79.43-1.37-.07-.28.26-.38.51-.4.44-.04.88-.06,1.46-.09-.33.68-.58,1.32-1.26,1.56-.55.2-.65.56-.64,1.05Z"/>
  <path class="cls-13" d="m100.11,44.16c.53.24.77.71.84,1.26.03.26-.14.53-.45.43-.56-.18-1.11-.5-1.15-1.14-.03-.35.42-.46.77-.55Z"/>
  <path class="cls-13" d="m108.48,74.51c.58-.16,1.17-1,1.75,0-.72,1.27-.83,1.29-1.75.25-.06-.06-.07-.11-.06-.17.02-.06.04-.08.06-.08Z"/>
  <path class="cls-13" d="m107.23,74.53c-.33-.13-.28-.53-.5-.74.18-.27.36-.54.53-.82.19-.3.43-.57.76-.22.27.29.37.68-.04.94-.27.17-.61.23-.74.58.06.06.08.12.06.18-.02.06-.04.09-.07.09Z"/>
  <path class="cls-13" d="m104.46,67.84c0,.33-.14.6-.48.59-.38-.02-.72-.19-.72-.65,0-.29.05-.62.43-.58.37.04.69.23.77.65Z"/>
  <path class="cls-13" d="m107.23,74.53c0-.09,0-.18,0-.27.47-.18.88-.08,1.25.25v.25c-.09.34-.17.68-.26,1.02-.53-.26-.61-.88-1-1.25Z"/>
  <path class="cls-13" d="m97.57,52.78c.38-.02.67.09.65.54,0,.25-.09.58-.38.52-.34-.08-.74-.25-.79-.68-.04-.34.26-.36.52-.38Z"/>
  <path class="cls-13" d="m97.39,51.37c-.41.64-.82.81-1.34.51-.07-.04-.14-.25-.1-.3.38-.48.88-.29,1.45-.2Z"/>
  <path class="cls-13" d="m64.27,102.97c.25.17.5.33.75.5.21.31-.18.62-.02.94.3-.05.46-.35.76-.37.3,0,.41.23.53.45.03.44-.12.79-.53,1.01-.59.42-.43.9-.28,1.52.41,1.68,1.85,2.4,2.96,3.41,1.11,1.01,2.26,1.99,2.71,3.44.26.83,1.2.79,1.49,1.65.25.76.33,1.37-.04,1.96-.67,1.06-.57,2.14-.48,3.3.08.97-.28,1.99-.12,2.94.36,2.19-1.32,3.6-1.87,5.43-.36,1.18-.53,2.39-.24,3.56.36,1.42-.35,2.56-.77,3.76-.51,1.46-1.51,2.74-1.29,4.45.2,1.5.72,2.85,1.43,4.16.15.28.47.48.51.84.06.53,1.02.79.59,1.36-.39.5-.87-.2-1.34-.25-.08,0-.17,0-.25,0-7.95.45-15.91.06-23.86.12-11.85.1-23.69.02-35.54.04-1.36,0-2.76-.33-4.08.29-1.49.06-1.53-.85-1.52-2.03.04-7.83.02-15.66.02-23.48,0-16.31,0-32.63,0-48.94,0-.95-.07-1.89-.5-2.76-.56-.57-.17-1.37-.5-2-.43-.67-.95-1.33,0-2,.83-.48,1.06.19,1.41.7.93,1.37,1.71,2.83,2.45,4.31.26.44.65.77.99,1.14.2.41.57.58.97.71.22.1.41.26.71.3-.03-.48-.43-.94.04-1.38.64-.59,1.12.18,1.69.18,1.08.93,2.08,1.94,3.02,3.02.07.43.43.57.75.75.25.25.5.5.75.75-.35.24-.48.61-.53,1.01-.1.38-.4.71-.26,1.14.27.84-.17,1.28-.88,1.57-.43.11-.85.13-1.26-.06-.46-.31-.24-.85-.42-1.26-.53-1.2-1.54-1.82-2.68-2.25-.62-.23-.94-.53-1.21-1.22-.54-1.37-1.81-2.19-3.01-2.98-.28-.18-.4.19-.43.43-.09.87-.14,1.74-.14,2.62,0,13.49.02,26.98-.01,40.47-.14.56-.14,1.13-.04,1.69,0,.45.07.9.03,1.35-.12.5-.14.99.03,1.48.06,2.03-.01,4.06-.01,6.09.01,5.44.02,10.88,0,16.32-.08.42-.21.85.09,1.25.55.74,1.2,1.1,2.21,1.1,19.22-.02,38.43-.02,57.65-.02.66,0,1.34.08,1.95-.27.85-.49.92-1.15.04-1.55-.94-.43-.98-1.1-.89-1.94.19-1.88.63-3.77,0-5.65-.07-.19-.1-.47.01-.61,1.04-1.25.7-2.95,1.4-4.31.57-1.11.58-2.39.55-3.53-.04-1.61.96-2.66,1.5-3.94.19-.45.47-.7.06-1.16-.71-.81-.6-1.81-.04-2.53.92-1.2.49-2.26,0-3.36-.15-.33-.47-.61-.39-1.01.56-2.56-1.42-3.7-2.93-4.96-.94-.79-1.51-1.84-2.41-2.61-.75-.64-1.15-1.67-2.27-1.92-.42-.09-.27-.43.03-.63.08-.08.17-.17.25-.25.11-.52.4-.8.94-.63.47.15.77-.07,1.06-.37-.17-.68.59-.8.76-1.27Z"/>
  <path class="cls-13" d="m65.76,105.5c.24-.31.16-.77.53-1.01,2.25,1.48,4.15,3.31,5.73,5.48.08.92.62,1.81.24,2.77-1-.49-1.58-1.15-1.1-2.36.25-.63-.35-.73-.77-.88-.64-.23-1.33-.4-.92-1.35.07-.15.08-.5-.21-.46-1.54.2-1.95-1.33-2.98-1.91-.17-.1-.31-.26-.52-.28Z"/>
  <path class="cls-13" d="m72.25,112.74c-.09-.92-.72-1.8-.24-2.77.53.16.44.9.98,1.05.42,1.15,1.38,2.02,1.72,3.22-.22.11-.45.19-.65.32-.95.67-1.21.59-1.28-.61-.03-.52-.51-.75-.53-1.22Z"/>
  <path class="cls-13" d="m74.96,116.99c.14.33-.31.66,0,.99-.2.61-.04,1.24-.09,1.86,0,.71,0,1.42,0,2.13,0,.79,0,1.59,0,2.38.01.15-.04.28-.16.38-.85.06-.97-.21-.84-1.1.21-1.4.19-2.86.09-4.28-.07-1.02.11-1.81.99-2.37Z"/>
  <path class="cls-13" d="m70.71,140.98c.48.97.51,2.13,1.24,3q-1.24.19-1.22-1.16c0-.36-.09-.66-.45-.79-.36-.12-.82-.23-.72-.68.14-.64.75-.27,1.14-.37Z"/>
  <path class="cls-13" d="m72.28,131.22c.59.99.51,1.92-.26,2.79-.5-.98-.13-1.89.26-2.79Z"/>
  <path class="cls-13" d="m74.76,114.47c.46.36.18.84.2,1.27-.16.04-.32.07-.48.13-.24.09-.51.17-.65-.11-.13-.28.06-.45.33-.54.36-.12.43-.47.59-.76Z"/>
  <path class="cls-13" d="m70.71,138.98c0,.33,0,.66,0,1-.85-.33-.16-.66,0-1Z"/>
  <path class="cls-16" d="m74.71,124.74c.02-.09.05-.18.07-.27.07-.1.13-.09.17.03-.03.42.28.89-.19,1.24-.33-.32.17-.68-.06-1Z"/>
  <path class="cls-13" d="m2.79,68.27c1,.46.29,1.34.5,2,0,24.64,0,49.29,0,73.93,0,.66.04,1.32.02,1.98,0,.18-.04.45-.33.44-.24,0-.38-.21-.4-.41-.04-.41-.07-.83-.04-1.24.55-7.19.16-14.38.2-21.57.01-2.12.02-4.24.03-6.36.04-15.03.02-30.06.02-45.08,0-1.22-.65-2.44,0-3.67Z"/>
  <path class="cls-3" d="m8.54,73.26c-.53.02-1.08.05-1-.75-.27-.4-.6-.73-1-1-.47-.22-.63-.66-.74-1.1-.35-1.48-1.68-2.4-2.14-3.82-.11-.36-.54-.33-.87-.33-.23-.38-.27-.75-.07-1.17.14-.3.12-.65-.03-.96-.6-1.2-.56-1.35.58-2.09.17-.11.37-.19.55-.28.15.18.31.36.46.54.84,2.19,2.33,3.99,3.6,5.93.29.44.61.84.92,1.26.17.87-.2,1.79.37,2.65.14.21.27,1.13-.63,1.13Z"/>
  <path class="cls-7" d="m74.96,124.5c-.06,0-.12-.01-.18-.03,0-.83,0-1.66,0-2.49.06,0,.11,0,.17,0,0,.83,0,1.67,0,2.5Z"/>
  <path class="cls-6" d="m74.96,121.99c-.06,0-.12,0-.17,0,0-.74,0-1.49,0-2.23.06,0,.11-.01.17-.02,0,.75,0,1.51,0,2.26Z"/>
  <path class="cls-27" d="m74.96,119.73c-.06,0-.11.01-.17.02,0-.6-.22-1.21.17-1.77,0,.58,0,1.17,0,1.75Z"/>
  <path class="cls-13" d="m4.54,143.23c-.31-1.95-.11-3.92-.14-5.88-.06-4.84.02-9.69.05-14.53,0-.69.06-1.38.09-2.08-.19-.5-.19-1,0-1.5-.04-.42-.35-.83,0-1.25-.19-.58-.19-1.17,0-1.75-.29-2.32-.11-4.65-.12-6.98-.03-9.18-.04-18.37,0-27.55,0-2.9-.12-5.8.13-8.7.03-.33-.02-.72.34-.87.41-.16.62.3.91.41,1.15.45,1.49,1.8,2.62,2.22.22.08.42.25.34.45-.47,1.19.41,1.23,1.16,1.47,1.23.39,2.08,1.27,2.72,2.36.23.4-.2.79-.09,1.2-.64.43-.83-.61-1.39-.43.78,1.53,1.96,1.7,2.89.43.37-.41.81-.79.41-1.44-.39-.65.15-.84.59-1.06,1.3.45,2.09,1.28,1.99,2.75-.09.13-.32.1-.38.28.11-.12.27-.18.38-.28.37.02.67.15.71.56.03.43-.33.4-.6.46-.31.07-.68.38-.47.56.73.6.84,1.44,1.11,2.23.07.22.33.36.62.24.38-.17.44-.49.37-.83-.1-.56-.36-1.1-.04-1.69.14-.25.14-.61.46-.68.35-.07.69.11.82.43.42,1.01,1.11,1.51,2.23,1.63.48.05,1.38.39.53,1.24-.16.16-.24.35-.09.55.15.22.35.12.55.07.96-.24,1.97-.77,2.61.58.13.27.54.28.91.19.61-.15.71.45.99.77.34.4-.03.58-.22.83-.41.51-.76,1.09-1.24,1.52-.31.28-.8.41-.48.92.36.56.95.31,1.45.24.15-.02.25-.32.41-.45.21-.16.48-.48.74-.21.3.31-.05.49-.29.66-.21.15-.62.2-.42.62.13.27.36.45.66.52.39.1.87-.14,1.15.29.46.7.88.79,1.41.05.33-.46.79-.36,1.23-.11.26.14.37.29.1.56-.27.27-1,.49-.36.99.51.4,1.19.44,1.72-.03.3-.26.41-.74.93-.73.02.64.12,1.08.97,1.1.55.01,1.09.26,1.11,1.17.02.83.91,1.32,1.63,1.65.6.27,1.2.02,1.62-.57.48-.67,1.6-.71,1.69-1.87.03-.39.9-.27,1.37-.17.49.11.26.49.18.81-.11.43,0,.65.5.46,1.17-.43,2.14.09,3.07.71.24.16.49.56.72.41,1.02-.64,1.43.87,2.34.61.19-.05.24.28.09.48-.1.13-.22.25-.34.37-.49.47-1.16,1.15-.51,1.65.65.5,1-.32,1.34-.91.46-.81,1.28-.71,1.76.15.2.36.43.4.82.3.33-.08.7-.47,1.02-.13.24.26-.01.56-.24.74-.38.29-.75.72-1.31.28-.16-.13-.35-.22-.53-.31-.31-.15-.63-.27-.92,0-.2.19-.15.47-.09.71.09.38.41.38.7.36.55-.03.94.08,1.15.67.15.41.63.33,1,.33.39,0,.76,0,.94.44.22.54.57.61,1.1.39.38-.16.89.05.96.38.18.84.8.68,1.34.76.34.06.76.09.86-.29.14-.55-.38-.37-.65-.43-.76-.16-.89-.92-1.32-1.39-.15-.16.05-.4.25-.49.32-.15.72-.2.87.18.34.86.97.95,1.78,1,1.01.06,1.27.91.62,1.72-.44.55-.82,1.13-1.46,1.5-.38.22-.62.66-.18,1.03.36.32.91.43,1.19-.06.32-.56.75-.72,1.33-.72-.08.24-.19.51.24.49.29-.01.57-.07.86-.1,0,.92,1.07,1.03,1.3,1.68.13.37.05.6.53.5.22-.05.48.12.42.34-.35,1.26.86,1.54,1.44,1.86,1.02.57,1.49,1.5,2.17,2.29.13.15.17.4.31.52.77.61.8.74.7,1.67-.07.58-.38,1.15.36,1.72.43.33.31,1.24.46,1.87.18.75.09,1.2-.54,1.7-.6.48-.43,1.72.13,2.31.45.47.63,1.02-.1,1.39-.46.23-.56.57-.55,1.01,0,.08.03.21-.01.24-1.14.93-.68,2.36-1.11,3.49-.18.48.12.86,0,1.33-.37,1.41-1.02,2.76-1.05,4.27,0,.32-.14.65-.46.85-.5.31-.47.85-.31,1.23.77,1.87.14,3.71,0,5.56-.05.66-.35,1.41.76,1.62.49.09,1.06.61.88,1.19-.21.68-.8,1.17-1.57,1.2-1.54.07-3.09.09-4.63.1-11.25,0-22.49,0-33.74,0-7.06,0-14.13-.02-21.19.03-1.12,0-1.57-.6-2.03-1.38-.19-.42-.19-.83,0-1.25Z"/>
  <path class="cls-13" d="m34.57,92.47c-.52-.83.28-1.32.56-2.04.47.49.89,1.17,1.7.62.14-.09.33-.2.4,0,.5,1.56,2.15.64,3.03,1.41.22.19.84.01.66.59-.12.4-.46.78-.93.62-.55-.19-1.32.15-1.51-.01-.71-.62-1.7-.49-2.34-1.04-.75-.64-.68-.73-1.58-.16Z"/>
  <path class="cls-13" d="m63.51,104.25c-.05.63-.09,1.29-.98.66-.52-.37-.72.1-1.02.34-.09-.18-.17-.37-.27-.55-.36-.59.01-1,.36-1.4.47-.54.81-.01,1.14.2.29.19.52.49.77.75Z"/>
  <path class="cls-13" d="m55.94,100.07c-.23.4-.5.8-.98.88-.44.07-.6-.34-.6-.64,0-.47.35-.76.81-.76.32,0,.65.12.77.52Z"/>
  <path class="cls-13" d="m44.04,92.74c.19.03.42-.05.49.23-.14.24-.27.61-.62.37-.25-.18-.1-.43.13-.6Z"/>
  <path class="cls-13" d="m46.28,93.73c.31-.04.5.19.74.32-.44.35-.68.22-.74-.32Z"/>
  <path class="cls-13" d="m56.77,98.72c.31-.04.5.19.74.32-.44.35-.68.22-.74-.32Z"/>
  <path class="cls-13" d="m8.54,73.26c.65-.38.74-1.07.29-1.46-.72-.62-.72-1.07-.12-1.71.11-.12.07-.4.09-.6.75.92,1.5,1.83,2.25,2.75-.36.48-.61.15-.9-.09-.23-.18-.47-.1-.66.1-.19.21-.24.45-.03.67.26.28.87.55.28.92-.46.29-.92-.11-1.19-.57Z"/>
  <path class="cls-3" d="m14.82,76c-.52.02-.97-.03-.75-.75.25.25.5.5.75.75Z"/>
  <path class="cls-13" d="m65.76,104.04c-.42.26-.44,1.28-1.02.93-.64-.39.02-1.01.28-1.49.25.19.49.38.74.56Z"/>
  <path class="cls-10" d="m94.49,122.99c.34.43.49.91.48,1.57-1.32-.74-1.1-1.77-.77-2.83.49.33.13.85.29,1.25Z"/>
  <path class="cls-8" d="m94.27,121.25c-.49-.52-.25-1.13-.2-1.72,0-.03.23-.09.3-.05.66.38.27,1.02.36,1.54-.1.09-.13.22-.24.31-.09.03-.17,0-.22-.08Z"/>
  <path class="cls-1" d="m94.27,121.25c.07,0,.13-.02.19-.03.22.1.09.36.24.49.07.45.05.89-.22,1.28-.45-.34-.15-.85-.29-1.25.02-.16.05-.32.07-.48Z"/>
  <path class="cls-28" d="m94.71,121.71c-.22-.1-.21-.3-.24-.49.09-.07.18-.13.27-.2,0,.23-.01.46-.02.69Z"/>
  <path class="cls-21" d="m115.32,125.1c-.08-.41-.17-.82-.28-1.37.86.37.73.85.28,1.37Z"/>
  <path class="cls-13" d="m14.04,80.26c.06.94-.21,1.27-1.29,1.2-.99-.07-1.33-.87-2.03-1.22-.27-.14-.2-.52.03-.76.24-.24.5-.22.79-.06.39.22.44.83,1,.85h1.5Z"/>
  <path class="cls-13" d="m13.29,77.76c-.26-.15-.36-.54-.75-.5-.25-.33-.3-.67,0-1,.62.48,1.52.72,1.5,1.75-.33.16-.48-.22-.75-.25Z"/>
  <path class="cls-13" d="m12.54,76.26v1c-.58-.06-.53-.49-.47-.88.05-.33.24-.36.47-.12Z"/>
  <path class="cls-13" d="m6.54,71.51c.59.07.93.41,1,1-.49-.18-.82-.51-1-1Z"/>
  <path class="cls-13" d="m4.54,116.24v1.75c-.39-.58-.39-1.17,0-1.75Z"/>
  <path class="cls-13" d="m4.54,119.24v1.5c-.38-.5-.38-1,0-1.5Z"/>
  <path class="cls-13" d="m4.54,143.23v1.25c-.37-.42-.37-.83,0-1.25Z"/>
  <path class="cls-13" d="m13.29,77.76c.38-.3.47.25.75.25-.43.45-.56.02-.75-.25Z"/>
  <path class="cls-13" d="m16.17,84.61c-.39-.08-.61-.39-.62-.84,0-.59.38-.76.9-.75.53,0,.76.35.74.79-.02.53-.44.74-1.02.8Z"/>
  <path class="cls-13" d="m26.22,87.88c.05.31-.03.6-.25.51-.51-.21-.79-.75-.98-1.2-.15-.37.32-.69.7-.63.95.13-.04,1.09.53,1.33Z"/>
  <path class="cls-13" d="m21.11,85.13c-.27-.51-1.21-.41-1.07-1.21.04-.21.35-.45.58-.36.76.3.27,1.04.48,1.56Z"/>
  <path class="cls-13" d="m23.36,86.03c-.09.1-.14.2-.19.2-.43-.04-.91.23-1.26-.2-.04-.04.06-.29.11-.3.47-.05.95-.07,1.34.3Z"/>
  <path class="cls-13" d="m7.7,75.9c0,.32-.22.4-.4.44-.31.07-.44-.13-.47-.4-.03-.24.11-.39.35-.39.27,0,.44.16.52.35Z"/>
  <path class="cls-13" d="m24.2,89.23c-.26-.02-.53-.07-.5-.39.02-.25.23-.46.48-.43.16.02.37.21.42.37.11.32-.17.39-.4.45Z"/>
  <path class="cls-13" d="m17.05,80.51c-.27.32-.25.91-.84.91-.17,0-.32-.18-.26-.34.19-.48.6-.61,1.1-.57Z"/>
</svg>